<!-- icon666.com - MILLIONS vector ICONS FREE --><svg version="1.1" id="Capa_1" xmlns="http://www.w3.org/2000/svg" xmlns:xlink="http://www.w3.org/1999/xlink" x="0px" y="0px" viewBox="0 0 512 512" style="enable-background:new 0 0 512 512;" xml:space="preserve"><g><g><path d="M473.716,202.205h-42.508V196.8c0-30.206-24.575-54.781-54.782-54.781c-30.207,0-54.782,24.575-54.782,54.781v5.405 h-13.579l-11.894-80.28h-57.471v-4.962c0-36.133-29.391-65.524-65.524-65.524c-36.123,0-65.524,29.391-65.524,65.524v4.962H50.179 L0,460.561h512L473.716,202.205z M351.655,196.801c0-13.659,11.112-24.77,24.77-24.77c13.659,0,24.771,11.111,24.771,24.77v5.405 h-49.541V196.801z M137.661,116.963c0-19.587,15.936-35.513,35.513-35.513c19.587,0,35.513,15.926,35.513,35.513v4.962h-71.026 V116.963z M76.068,151.936h31.582v30.551h30.011v-30.551h71.026v30.551h30.011v-30.551h31.582l31.252,210.928H44.817 L76.068,151.936z M34.783,430.55l5.582-37.674h265.619l5.582,37.674H34.783z M312.516,232.216h9.128v16.176h30.011v-16.176h49.541 v16.176h30.011v-16.176h16.618l29.391,198.334h-135.31L312.516,232.216z" fill="#000000" style="fill: rgb(255, 174, 121);"></path></g></g></svg>